<?xml version="1.0" standalone="no"?>
<!DOCTYPE svg PUBLIC "-//W3C//DTD SVG 20010904//EN"
 "http://www.w3.org/TR/2001/REC-SVG-20010904/DTD/svg10.dtd">
<svg version="1.0" xmlns="http://www.w3.org/2000/svg"
 width="185.000000pt" height="185.000000pt" viewBox="0 0 185.000000 185.000000"
 preserveAspectRatio="xMidYMid meet">
<metadata>
Created by potrace 1.11, written by Peter Selinger 2001-2013
</metadata>
<g transform="translate(0.000000,185.000000) scale(0.100000,-0.100000)"
fill="#000000" stroke="none">
<path d="M20 930 l0 -920 900 0 900 0 0 920 0 920 -900 0 -900 0 0 -920z
m1297 387 l28 -27 3 -246 c2 -170 0 -244 -7 -239 -7 4 -11 88 -11 242 0 229
-1 237 -22 260 l-21 23 -362 0 c-386 0 -363 2 -407 -43 -1 -1 -5 -112 -8 -247
l-6 -245 -2 237 c-1 170 1 245 10 264 24 52 42 54 425 51 l353 -2 27 -28z
m-310 -94 c18 -21 40 -45 48 -53 7 -8 25 -23 39 -33 36 -25 51 -86 32 -130
-19 -48 -61 -77 -108 -77 -21 0 -52 -7 -68 -15 -27 -14 -33 -14 -60 0 -16 8
-43 15 -60 15 -101 0 -156 124 -88 197 13 14 33 29 46 34 12 5 22 15 22 23 0
8 16 28 35 45 29 25 45 31 81 31 40 0 50 -5 81 -37z m-611 -369 c19 -9 41 -26
49 -37 14 -19 13 -22 -8 -33 -19 -11 -25 -9 -45 9 -31 29 -84 28 -117 -3 -14
-13 -22 -27 -18 -31 5 -5 55 -10 113 -11 l105 -3 -3 -35 c-8 -112 -156 -165
-236 -84 -37 37 -1 67 41 34 33 -26 87 -26 113 0 11 11 20 24 20 30 0 5 -47
11 -107 12 l-108 3 1 36 c1 45 32 91 76 112 42 21 81 21 124 1z m312 -3 c45
-23 72 -67 72 -115 l0 -36 -110 0 c-61 0 -110 -4 -110 -9 0 -5 12 -19 26 -30
34 -27 85 -27 109 -1 22 24 38 25 55 5 18 -22 -19 -60 -71 -73 -53 -13 -100 0
-140 41 l-32 32 5 -55 c4 -42 11 -59 32 -77 l27 -23 355 0 355 0 24 25 c19 18
25 35 25 69 0 25 5 48 10 51 16 10 12 -72 -5 -105 -8 -16 -24 -34 -34 -40 -13
-6 -152 -10 -381 -10 l-362 0 -29 29 -29 30 3 110 c3 124 15 151 78 183 44 23
81 23 127 -1z m558 3 c19 -9 41 -26 49 -37 14 -19 13 -22 -8 -33 -19 -11 -25
-9 -45 9 -54 50 -142 10 -142 -65 0 -82 91 -119 148 -60 l27 27 -75 5 c-68 5
-75 7 -78 28 -3 22 -2 22 102 22 102 0 106 -1 106 -22 0 -37 -38 -103 -72
-122 -94 -56 -214 13 -212 123 1 106 105 170 200 125z m312 -3 c39 -20 59 -46
73 -93 15 -54 7 -58 -112 -58 -60 0 -109 -4 -109 -9 0 -19 54 -51 84 -51 18 0
42 9 54 20 26 24 35 25 53 4 11 -14 9 -20 -19 -45 -67 -60 -179 -34 -217 50
-32 71 -4 148 66 183 44 23 81 23 127 -1z m-567 -12 c31 -16 42 -56 24 -91
-10 -21 -12 -36 -5 -48 6 -10 10 -42 10 -70 0 -48 -2 -51 -22 -48 -20 3 -24
11 -28 53 l-5 50 -67 3 -68 3 0 -56 c0 -53 -1 -56 -22 -53 -22 3 -23 7 -26
136 l-3 132 96 0 c53 0 105 -5 116 -11z"/>
<path d="M864 1225 c-12 -8 -27 -28 -34 -45 -7 -16 -19 -30 -27 -30 -8 0 -28
-13 -44 -29 -41 -41 -41 -101 0 -142 17 -17 40 -29 55 -29 l25 0 -24 36 c-14
20 -25 41 -25 46 0 11 59 -19 88 -45 l22 -20 0 36 c0 19 5 48 11 64 l11 28 14
-30 c7 -16 13 -45 14 -64 l0 -33 35 31 c58 50 85 38 44 -20 l-20 -29 21 0 c32
0 58 17 75 50 29 57 9 116 -50 144 -19 9 -35 23 -35 30 0 7 -12 25 -26 40 -31
30 -95 36 -130 11z"/>
<path d="M605 809 c-22 -13 -45 -38 -45 -51 0 -4 36 -8 80 -8 60 0 80 3 80 13
0 37 -77 67 -115 46z"/>
<path d="M1475 808 c-25 -15 -45 -40 -39 -50 3 -5 39 -8 80 -8 55 0 74 3 74
13 0 37 -78 67 -115 45z"/>
<path d="M850 775 c0 -26 1 -26 68 -23 59 3 67 5 67 23 0 18 -8 20 -67 23 -67
3 -68 3 -68 -23z"/>
</g>
</svg>
