<svg width="60" height="60" viewBox="0 0 60 60" fill="none" xmlns="http://www.w3.org/2000/svg">
<path d="M30 26C33.86 26 37 22.859 37 19C37 15.141 33.86 12 30 12C26.14 12 23 15.141 23 19C23 22.859 26.14 26 30 26ZM30 14C32.757 14 35 16.243 35 19C35 21.757 32.757 24 30 24C27.243 24 25 21.757 25 19C25 16.243 27.243 14 30 14Z" fill="#FFE7B8"/>
<path d="M29.823 54.757L45.164 32.6C50.918 24.929 50.086 12.32 43.383 5.618C39.761 1.995 34.945 0 29.823 0C24.701 0 19.885 1.995 16.263 5.617C9.56003 12.319 8.72803 24.928 14.459 32.569L29.823 54.757ZM17.677 7.031C20.922 3.787 25.235 2 29.823 2C34.411 2 38.724 3.787 41.969 7.031C48.019 13.08 48.764 24.468 43.542 31.43L29.823 51.243L16.082 31.4C10.882 24.468 11.628 13.08 17.677 7.031Z" fill="#FFE7B8"/>
<path d="M42.117 43.0068C41.567 42.9398 41.071 43.3338 41.007 43.8828C40.943 44.4318 41.335 44.9288 41.883 44.9928C52.399 46.2308 58 49.5668 58 51.4998C58 54.2138 47.348 57.9998 30 57.9998C12.652 57.9998 2 54.2138 2 51.4998C2 49.5668 7.601 46.2308 18.117 44.9928C18.665 44.9288 19.057 44.4308 18.993 43.8828C18.928 43.3338 18.432 42.9378 17.883 43.0068C7.354 44.2468 0 47.7388 0 51.4998C0 55.7238 10.305 59.9998 30 59.9998C49.695 59.9998 60 55.7238 60 51.4998C60 47.7388 52.646 44.2468 42.117 43.0068Z" fill="#FFE7B8"/>
</svg>
